<mxfile host="app.diagrams.net" agent="Mozilla/5.0 (Windows NT 10.0; Win64; x64) AppleWebKit/537.36 (KHTML, like Gecko) Chrome/131.0.0.0 Safari/537.36" version="26.0.10">
  <diagram name="Pagina-1" id="MoHloMCfRaIEQKw3vNW9">
    <mxGraphModel dx="1877" dy="557" grid="1" gridSize="10" guides="1" tooltips="1" connect="1" arrows="1" fold="1" page="1" pageScale="1" pageWidth="827" pageHeight="1169" math="0" shadow="0">
      <root>
        <mxCell id="0" />
        <mxCell id="1" parent="0" />
        <mxCell id="UEJqM0lGvJllBgxKq_E7-3" value="" style="edgeStyle=orthogonalEdgeStyle;rounded=0;orthogonalLoop=1;jettySize=auto;html=1;" edge="1" parent="1" source="UEJqM0lGvJllBgxKq_E7-1" target="UEJqM0lGvJllBgxKq_E7-2">
          <mxGeometry relative="1" as="geometry" />
        </mxCell>
        <mxCell id="UEJqM0lGvJllBgxKq_E7-1" value="start" style="ellipse;whiteSpace=wrap;html=1;" vertex="1" parent="1">
          <mxGeometry x="354" width="120" height="80" as="geometry" />
        </mxCell>
        <mxCell id="UEJqM0lGvJllBgxKq_E7-5" value="" style="edgeStyle=orthogonalEdgeStyle;rounded=0;orthogonalLoop=1;jettySize=auto;html=1;" edge="1" parent="1" source="UEJqM0lGvJllBgxKq_E7-2" target="UEJqM0lGvJllBgxKq_E7-4">
          <mxGeometry relative="1" as="geometry" />
        </mxCell>
        <mxCell id="UEJqM0lGvJllBgxKq_E7-2" value="counter_numbers = 0&lt;div&gt;counter_evern = 0&lt;/div&gt;&lt;div&gt;counter_odd = 0&lt;/div&gt;&lt;div&gt;counter_+20 = 0&lt;/div&gt;&lt;div&gt;counter_-10 = 0&lt;/div&gt;" style="whiteSpace=wrap;html=1;direction=west;" vertex="1" parent="1">
          <mxGeometry x="346" y="170" width="136" height="90" as="geometry" />
        </mxCell>
        <mxCell id="UEJqM0lGvJllBgxKq_E7-7" value="" style="edgeStyle=orthogonalEdgeStyle;rounded=0;orthogonalLoop=1;jettySize=auto;html=1;" edge="1" parent="1" source="UEJqM0lGvJllBgxKq_E7-4" target="UEJqM0lGvJllBgxKq_E7-6">
          <mxGeometry relative="1" as="geometry" />
        </mxCell>
        <mxCell id="UEJqM0lGvJllBgxKq_E7-4" value="read n" style="shape=parallelogram;perimeter=parallelogramPerimeter;whiteSpace=wrap;html=1;fixedSize=1;" vertex="1" parent="1">
          <mxGeometry x="354" y="355" width="120" height="60" as="geometry" />
        </mxCell>
        <mxCell id="UEJqM0lGvJllBgxKq_E7-15" value="" style="edgeStyle=orthogonalEdgeStyle;rounded=0;orthogonalLoop=1;jettySize=auto;html=1;" edge="1" parent="1" source="UEJqM0lGvJllBgxKq_E7-6" target="UEJqM0lGvJllBgxKq_E7-14">
          <mxGeometry relative="1" as="geometry" />
        </mxCell>
        <mxCell id="UEJqM0lGvJllBgxKq_E7-37" value="" style="edgeStyle=orthogonalEdgeStyle;rounded=0;orthogonalLoop=1;jettySize=auto;html=1;" edge="1" parent="1" source="UEJqM0lGvJllBgxKq_E7-6" target="UEJqM0lGvJllBgxKq_E7-36">
          <mxGeometry relative="1" as="geometry" />
        </mxCell>
        <mxCell id="UEJqM0lGvJllBgxKq_E7-6" value="counter_numbers &amp;lt; 10" style="rhombus;whiteSpace=wrap;html=1;" vertex="1" parent="1">
          <mxGeometry x="344" y="485" width="140" height="80" as="geometry" />
        </mxCell>
        <mxCell id="UEJqM0lGvJllBgxKq_E7-11" value="" style="edgeStyle=orthogonalEdgeStyle;rounded=0;orthogonalLoop=1;jettySize=auto;html=1;" edge="1" parent="1" source="UEJqM0lGvJllBgxKq_E7-8" target="UEJqM0lGvJllBgxKq_E7-10">
          <mxGeometry relative="1" as="geometry" />
        </mxCell>
        <mxCell id="UEJqM0lGvJllBgxKq_E7-33" value="TRUE" style="edgeLabel;html=1;align=center;verticalAlign=middle;resizable=0;points=[];" vertex="1" connectable="0" parent="UEJqM0lGvJllBgxKq_E7-11">
          <mxGeometry y="-1" relative="1" as="geometry">
            <mxPoint as="offset" />
          </mxGeometry>
        </mxCell>
        <mxCell id="UEJqM0lGvJllBgxKq_E7-13" value="" style="edgeStyle=orthogonalEdgeStyle;rounded=0;orthogonalLoop=1;jettySize=auto;html=1;" edge="1" parent="1" source="UEJqM0lGvJllBgxKq_E7-8" target="UEJqM0lGvJllBgxKq_E7-12">
          <mxGeometry relative="1" as="geometry" />
        </mxCell>
        <mxCell id="UEJqM0lGvJllBgxKq_E7-34" value="FALSE" style="edgeLabel;html=1;align=center;verticalAlign=middle;resizable=0;points=[];" vertex="1" connectable="0" parent="UEJqM0lGvJllBgxKq_E7-13">
          <mxGeometry x="-0.1333" relative="1" as="geometry">
            <mxPoint as="offset" />
          </mxGeometry>
        </mxCell>
        <mxCell id="UEJqM0lGvJllBgxKq_E7-8" value="n % 2 == 0" style="rhombus;whiteSpace=wrap;html=1;" vertex="1" parent="1">
          <mxGeometry x="374" y="780" width="80" height="80" as="geometry" />
        </mxCell>
        <mxCell id="UEJqM0lGvJllBgxKq_E7-18" value="" style="edgeStyle=orthogonalEdgeStyle;rounded=0;orthogonalLoop=1;jettySize=auto;html=1;" edge="1" parent="1" source="UEJqM0lGvJllBgxKq_E7-10" target="UEJqM0lGvJllBgxKq_E7-17">
          <mxGeometry relative="1" as="geometry" />
        </mxCell>
        <mxCell id="UEJqM0lGvJllBgxKq_E7-10" value="counter_even += 1" style="whiteSpace=wrap;html=1;" vertex="1" parent="1">
          <mxGeometry x="514" y="790" width="120" height="60" as="geometry" />
        </mxCell>
        <mxCell id="UEJqM0lGvJllBgxKq_E7-20" value="" style="edgeStyle=orthogonalEdgeStyle;rounded=0;orthogonalLoop=1;jettySize=auto;html=1;" edge="1" parent="1" source="UEJqM0lGvJllBgxKq_E7-12" target="UEJqM0lGvJllBgxKq_E7-19">
          <mxGeometry relative="1" as="geometry" />
        </mxCell>
        <mxCell id="UEJqM0lGvJllBgxKq_E7-12" value="counter_odd += 1" style="whiteSpace=wrap;html=1;" vertex="1" parent="1">
          <mxGeometry x="194" y="790" width="120" height="60" as="geometry" />
        </mxCell>
        <mxCell id="UEJqM0lGvJllBgxKq_E7-16" style="edgeStyle=orthogonalEdgeStyle;rounded=0;orthogonalLoop=1;jettySize=auto;html=1;exitX=0.5;exitY=1;exitDx=0;exitDy=0;entryX=0.5;entryY=0;entryDx=0;entryDy=0;" edge="1" parent="1" source="UEJqM0lGvJllBgxKq_E7-14" target="UEJqM0lGvJllBgxKq_E7-8">
          <mxGeometry relative="1" as="geometry" />
        </mxCell>
        <mxCell id="UEJqM0lGvJllBgxKq_E7-14" value="counter_numbers += 1" style="whiteSpace=wrap;html=1;" vertex="1" parent="1">
          <mxGeometry x="347" y="660" width="134" height="60" as="geometry" />
        </mxCell>
        <mxCell id="UEJqM0lGvJllBgxKq_E7-24" value="" style="edgeStyle=orthogonalEdgeStyle;rounded=0;orthogonalLoop=1;jettySize=auto;html=1;" edge="1" parent="1" source="UEJqM0lGvJllBgxKq_E7-17" target="UEJqM0lGvJllBgxKq_E7-23">
          <mxGeometry relative="1" as="geometry" />
        </mxCell>
        <mxCell id="UEJqM0lGvJllBgxKq_E7-27" style="edgeStyle=orthogonalEdgeStyle;rounded=0;orthogonalLoop=1;jettySize=auto;html=1;exitX=1;exitY=0.5;exitDx=0;exitDy=0;entryX=1;entryY=0.5;entryDx=0;entryDy=0;" edge="1" parent="1" source="UEJqM0lGvJllBgxKq_E7-17" target="UEJqM0lGvJllBgxKq_E7-6">
          <mxGeometry relative="1" as="geometry">
            <Array as="points">
              <mxPoint x="760" y="960" />
              <mxPoint x="760" y="525" />
            </Array>
          </mxGeometry>
        </mxCell>
        <mxCell id="UEJqM0lGvJllBgxKq_E7-31" value="FALSE" style="edgeLabel;html=1;align=center;verticalAlign=middle;resizable=0;points=[];" vertex="1" connectable="0" parent="UEJqM0lGvJllBgxKq_E7-27">
          <mxGeometry x="-0.8086" y="-3" relative="1" as="geometry">
            <mxPoint as="offset" />
          </mxGeometry>
        </mxCell>
        <mxCell id="UEJqM0lGvJllBgxKq_E7-17" value="n &amp;gt; 20" style="rhombus;whiteSpace=wrap;html=1;" vertex="1" parent="1">
          <mxGeometry x="534" y="920" width="80" height="80" as="geometry" />
        </mxCell>
        <mxCell id="UEJqM0lGvJllBgxKq_E7-22" value="" style="edgeStyle=orthogonalEdgeStyle;rounded=0;orthogonalLoop=1;jettySize=auto;html=1;" edge="1" parent="1" source="UEJqM0lGvJllBgxKq_E7-19" target="UEJqM0lGvJllBgxKq_E7-21">
          <mxGeometry relative="1" as="geometry" />
        </mxCell>
        <mxCell id="UEJqM0lGvJllBgxKq_E7-29" style="edgeStyle=orthogonalEdgeStyle;rounded=0;orthogonalLoop=1;jettySize=auto;html=1;exitX=1;exitY=0.5;exitDx=0;exitDy=0;entryX=1;entryY=0.5;entryDx=0;entryDy=0;" edge="1" parent="1" source="UEJqM0lGvJllBgxKq_E7-19" target="UEJqM0lGvJllBgxKq_E7-6">
          <mxGeometry relative="1" as="geometry">
            <Array as="points">
              <mxPoint x="294" y="1030" />
              <mxPoint x="760" y="1030" />
              <mxPoint x="760" y="525" />
            </Array>
          </mxGeometry>
        </mxCell>
        <mxCell id="UEJqM0lGvJllBgxKq_E7-30" value="FALSE" style="edgeLabel;html=1;align=center;verticalAlign=middle;resizable=0;points=[];" vertex="1" connectable="0" parent="UEJqM0lGvJllBgxKq_E7-29">
          <mxGeometry x="-0.7297" y="1" relative="1" as="geometry">
            <mxPoint as="offset" />
          </mxGeometry>
        </mxCell>
        <mxCell id="UEJqM0lGvJllBgxKq_E7-19" value="n &amp;lt; -10" style="rhombus;whiteSpace=wrap;html=1;" vertex="1" parent="1">
          <mxGeometry x="214" y="920" width="80" height="80" as="geometry" />
        </mxCell>
        <mxCell id="UEJqM0lGvJllBgxKq_E7-26" style="edgeStyle=orthogonalEdgeStyle;rounded=0;orthogonalLoop=1;jettySize=auto;html=1;exitX=0.5;exitY=1;exitDx=0;exitDy=0;entryX=1;entryY=0.5;entryDx=0;entryDy=0;" edge="1" parent="1" source="UEJqM0lGvJllBgxKq_E7-21" target="UEJqM0lGvJllBgxKq_E7-6">
          <mxGeometry relative="1" as="geometry">
            <Array as="points">
              <mxPoint x="254" y="1170" />
              <mxPoint x="760" y="1170" />
              <mxPoint x="760" y="525" />
            </Array>
          </mxGeometry>
        </mxCell>
        <mxCell id="UEJqM0lGvJllBgxKq_E7-21" value="counter_-10 += 1" style="whiteSpace=wrap;html=1;" vertex="1" parent="1">
          <mxGeometry x="194" y="1090" width="120" height="60" as="geometry" />
        </mxCell>
        <mxCell id="UEJqM0lGvJllBgxKq_E7-25" style="edgeStyle=orthogonalEdgeStyle;rounded=0;orthogonalLoop=1;jettySize=auto;html=1;exitX=1;exitY=0.5;exitDx=0;exitDy=0;entryX=1;entryY=0.5;entryDx=0;entryDy=0;" edge="1" parent="1" source="UEJqM0lGvJllBgxKq_E7-23" target="UEJqM0lGvJllBgxKq_E7-6">
          <mxGeometry relative="1" as="geometry">
            <Array as="points">
              <mxPoint x="760" y="1120" />
              <mxPoint x="760" y="525" />
            </Array>
          </mxGeometry>
        </mxCell>
        <mxCell id="UEJqM0lGvJllBgxKq_E7-23" value="counter_+20 += 1" style="whiteSpace=wrap;html=1;" vertex="1" parent="1">
          <mxGeometry x="514" y="1090" width="120" height="60" as="geometry" />
        </mxCell>
        <mxCell id="UEJqM0lGvJllBgxKq_E7-40" style="edgeStyle=orthogonalEdgeStyle;rounded=0;orthogonalLoop=1;jettySize=auto;html=1;exitX=0.5;exitY=1;exitDx=0;exitDy=0;entryX=0.5;entryY=0;entryDx=0;entryDy=0;" edge="1" parent="1" source="UEJqM0lGvJllBgxKq_E7-35" target="UEJqM0lGvJllBgxKq_E7-39">
          <mxGeometry relative="1" as="geometry" />
        </mxCell>
        <mxCell id="UEJqM0lGvJllBgxKq_E7-35" value="" style="ellipse;whiteSpace=wrap;html=1;aspect=fixed;" vertex="1" parent="1">
          <mxGeometry x="-70" y="512.5" width="25" height="25" as="geometry" />
        </mxCell>
        <mxCell id="UEJqM0lGvJllBgxKq_E7-38" style="edgeStyle=orthogonalEdgeStyle;rounded=0;orthogonalLoop=1;jettySize=auto;html=1;exitX=0;exitY=0.5;exitDx=0;exitDy=0;entryX=1;entryY=0.5;entryDx=0;entryDy=0;" edge="1" parent="1" source="UEJqM0lGvJllBgxKq_E7-36" target="UEJqM0lGvJllBgxKq_E7-35">
          <mxGeometry relative="1" as="geometry" />
        </mxCell>
        <mxCell id="UEJqM0lGvJllBgxKq_E7-36" value="write&lt;div&gt;count_even&lt;/div&gt;&lt;div&gt;count_odd&lt;/div&gt;&lt;div&gt;count_+20&lt;/div&gt;&lt;div&gt;count_-10&lt;/div&gt;" style="shape=parallelogram;perimeter=parallelogramPerimeter;whiteSpace=wrap;html=1;fixedSize=1;" vertex="1" parent="1">
          <mxGeometry x="134" y="480" width="120" height="90" as="geometry" />
        </mxCell>
        <mxCell id="UEJqM0lGvJllBgxKq_E7-39" value="end" style="ellipse;whiteSpace=wrap;html=1;" vertex="1" parent="1">
          <mxGeometry x="-117" y="670" width="120" height="80" as="geometry" />
        </mxCell>
      </root>
    </mxGraphModel>
  </diagram>
</mxfile>
